<?xml version="1.0" encoding="UTF-8" standalone="no"?>
<!-- Created with Inkscape (http://www.inkscape.org/) -->

<svg
   xmlns:dc="http://purl.org/dc/elements/1.1/"
   xmlns:cc="http://creativecommons.org/ns#"
   xmlns:rdf="http://www.w3.org/1999/02/22-rdf-syntax-ns#"
   xmlns:svg="http://www.w3.org/2000/svg"
   xmlns="http://www.w3.org/2000/svg"
   xmlns:sodipodi="http://sodipodi.sourceforge.net/DTD/sodipodi-0.dtd"
   xmlns:inkscape="http://www.inkscape.org/namespaces/inkscape"
   width="35.086956mm"
   height="7.9995279mm"
   viewBox="0 0 35.086956 7.9995279"
   version="1.1"
   id="svg8"
   inkscape:version="0.92.4 (5da689c313, 2019-01-14)"
   sodipodi:docname="ffgreen-red.svg">
  <defs
     id="defs2" />
  <sodipodi:namedview
     id="base"
     pagecolor="#ffffff"
     bordercolor="#666666"
     borderopacity="1.0"
     inkscape:pageopacity="0.0"
     inkscape:pageshadow="2"
     inkscape:zoom="2.8"
     inkscape:cx="9.7858533"
     inkscape:cy="-54.252718"
     inkscape:document-units="mm"
     inkscape:current-layer="layer1"
     showgrid="false"
     fit-margin-top="0"
     fit-margin-left="0"
     fit-margin-right="0"
     fit-margin-bottom="0"
     inkscape:window-width="958"
     inkscape:window-height="1057"
     inkscape:window-x="1"
     inkscape:window-y="18"
     inkscape:window-maximized="0" />
  <metadata
     id="metadata5">
    <rdf:RDF>
      <cc:Work
         rdf:about="">
        <dc:format>image/svg+xml</dc:format>
        <dc:type
           rdf:resource="http://purl.org/dc/dcmitype/StillImage" />
        <dc:title></dc:title>
      </cc:Work>
    </rdf:RDF>
  </metadata>
  <g
     inkscape:label="Layer 1"
     inkscape:groupmode="layer"
     id="layer1"
     transform="translate(-45.969309,-100.92077)">
    <g
       aria-label="GREEN"
       style="font-style:normal;font-weight:normal;font-size:10.58333302px;line-height:1.25;font-family:sans-serif;letter-spacing:0px;word-spacing:0px;fill:#e64017;fill-opacity:1;stroke:none;stroke-width:0.26458332"
       id="text12"
       transform="translate(-0.20045199,0.06681787)">
      <path
         style="font-style:normal;font-weight:normal;font-size:10.58333302px;line-height:1.25;font-family:sans-serif;letter-spacing:0px;word-spacing:0px;fill:#e64017;fill-opacity:1;stroke:none;stroke-width:0.99999994"
         d="M 12.373047 0.0078125 L 10.957031 0.01171875 L 7.1542969 0.017578125 L 7.1972656 24.296875 L 2.0722656 14.669922 L 3.921875 14.666016 L 3.8945312 0.0234375 L 0 0.03125 L 0.01953125 10.814453 L 0.01953125 10.816406 L 0.02734375 14.673828 L 0.033203125 18.378906 L 5.7832031 29.181641 L 7.2070312 29.177734 L 7.2070312 29.179688 L 11.009766 29.171875 L 10.966797 4.9082031 L 16.103516 14.556641 L 14.242188 14.560547 L 14.269531 29.203125 L 18.164062 29.195312 L 18.136719 14.552734 L 18.125 14.552734 L 18.119141 10.802734 L 12.373047 0.0078125 z "
         transform="matrix(0.26458333,0,0,0.26458333,46.169761,100.85395)"
         id="path50-7" />
      <path
         style="font-style:normal;font-weight:normal;font-size:10.58333302px;line-height:1.25;font-family:sans-serif;letter-spacing:0px;word-spacing:0px;fill:#e64017;fill-opacity:1;stroke:none;stroke-width:1.05576956"
         d="M 132.58203 0.12695312 C 130.71738 0.17722082 128.95014 0.43950946 127.28906 0.9375 C 125.45416 1.5008008 123.77729 2.3246882 122.25586 3.4082031 L 122.27148 11.771484 C 120.85512 10.91442 119.14042 10.125608 117.49414 9.6875 C 115.78555 9.2292701 113.97913 9.0078148 112.07812 9.0195312 C 110.11226 9.0308698 108.34453 9.3058921 106.75 9.8125 L 106.75586 13.478516 C 107.0932 13.303542 107.45504 13.154969 107.82617 13.017578 C 107.8263 13.124021 107.82413 13.22799 107.82812 13.337891 C 108.03237 18.630552 109.47294 22.70379 112.15039 25.554688 C 114.84028 28.390428 118.46059 29.698724 123.01367 29.482422 C 123.118 29.477622 123.22023 29.468374 123.32227 29.458984 L 123.32227 29.507812 C 123.38027 29.490233 123.4327 29.465476 123.49023 29.447266 C 123.49523 29.447011 123.49921 29.445612 123.50391 29.445312 L 123.50391 29.441406 C 125.53415 28.796495 127.28188 27.765258 128.71484 26.302734 C 131.16678 23.799779 132.45524 20.326881 132.61133 15.908203 L 132.60547 12.666016 L 126.17773 12.677734 L 126.16406 4.8457031 C 127.03552 4.3363362 128.01804 3.9564423 129.11133 3.7070312 C 130.13502 3.485929 131.30322 3.3775801 132.58984 3.3613281 L 132.58203 0.12695312 z M 112.42969 12.257812 C 114.23955 12.246473 115.96883 12.549437 117.61328 13.164062 C 119.25693 13.778656 120.81204 14.698745 122.27734 15.925781 C 122.27734 15.925781 122.27734 15.927734 122.27734 15.927734 L 122.2793 15.927734 L 128.45508 15.916016 C 128.32098 19.484604 127.42312 22.206205 125.74219 24.056641 C 125.07061 24.790587 124.27834 25.383491 123.36523 25.841797 C 123.31013 25.844797 123.2627 25.853642 123.20703 25.857422 C 119.64262 26.026367 116.9199 25.045426 115.03906 22.912109 C 113.17124 20.77815 112.15336 17.521728 111.98438 13.142578 C 111.97378 12.865917 111.97761 12.60451 111.97461 12.335938 C 112.63164 12.247708 111.69724 12.262332 112.42969 12.257812 z M 112.24023 29.382812 C 112.35392 29.420612 112.46427 29.460062 112.58008 29.492188 C 112.90644 29.584027 113.23859 29.65954 113.57227 29.734375 C 113.23785 29.659535 112.90514 29.582455 112.57812 29.490234 C 112.46301 29.456214 112.35313 29.418344 112.24023 29.382812 z M 122.01367 29.84375 C 121.64521 29.92199 121.26828 29.988166 120.88281 30.042969 C 121.26992 29.989679 121.64387 29.920474 122.01367 29.84375 z M 120.33984 30.103516 C 120.0667 30.133756 119.79336 30.166647 119.51172 30.185547 C 119.79409 30.166647 120.06581 30.132996 120.33984 30.103516 z M 116.57617 30.179688 C 117.039 30.213707 117.50913 30.230975 117.98438 30.234375 L 117.98438 30.232422 C 117.50913 30.229522 117.03909 30.210297 116.57617 30.179688 z "
         transform="matrix(0.26458333,0,0,0.26458333,46.169761,100.85395)"
         id="path42-6" />
    </g>
    <path
       style="font-style:normal;font-weight:normal;font-size:10.58333302px;line-height:1.25;font-family:sans-serif;letter-spacing:0px;word-spacing:0px;fill:#e64017;fill-opacity:1;stroke:none;stroke-width:1.01291418"
       d="M 70.464844 0.06640625 L 55.972656 0.09375 L 55.978516 3.4140625 L 63.314453 3.4003906 L 63.291016 7.2871094 L 56.591797 7.2988281 L 53.271484 7.2832031 L 53.226562 17.890625 L 56.544922 17.890625 L 56.578125 10.560547 L 66.589844 10.601562 L 66.617188 25.244141 L 70.511719 25.236328 L 70.484375 10.59375 L 70.478516 7.2734375 L 66.611328 7.28125 L 66.634766 3.3945312 L 70.470703 3.3867188 L 70.464844 0.06640625 z M 70.511719 25.236328 L 55.869141 25.28125 L 55.880859 29.175781 L 70.523438 29.130859 L 70.511719 25.236328 z "
       transform="matrix(0.26458333,0,0,0.26458333,45.969309,100.92077)"
       id="path869-2" />
    <path
       style="font-style:normal;font-weight:normal;font-size:10.58333302px;line-height:1.25;font-family:sans-serif;letter-spacing:0px;word-spacing:0px;fill:#e64017;fill-opacity:1;stroke:none;stroke-width:1.00696254"
       d="M 80.390625 0 L 80.373047 15.724609 L 84.277344 15.732422 L 84.285156 9.5664062 C 84.626616 11.267006 85.366395 12.621538 86.523438 13.613281 C 88.168136 15.023158 90.662924 15.730406 94.007812 15.734375 L 94.955078 15.734375 L 94.941406 28.197266 L 90.628906 28.193359 C 89.061007 28.189559 87.826594 27.866776 86.925781 27.220703 C 86.011903 26.574895 85.072044 25.265781 84.107422 23.291016 L 80.373047 15.726562 L 76.121094 15.724609 L 80.128906 23.78125 C 80.937086 25.439971 81.745683 26.743085 82.554688 27.691406 C 83.297027 28.575816 84.063112 29.162345 84.851562 29.474609 L 98.898438 29.490234 L 98.914062 15.75 L 98.746094 15.736328 L 98.900391 15.736328 L 98.904297 12.458984 L 94.011719 12.447266 C 92.10407 12.443466 90.667045 12.003765 89.701172 11.121094 C 88.722221 10.251538 88.234351 8.9540088 88.236328 7.2304688 C 88.238028 5.5068908 88.729957 4.1982434 89.710938 3.3046875 C 90.678828 2.4243221 92.1158 1.9859758 94.023438 1.9882812 L 98.916016 2 L 98.917969 0.12304688 L 88.984375 0.11523438 C 87.403656 0.59266429 86.191249 1.4235627 85.359375 2.6191406 C 84.841056 3.3528187 84.497118 4.2143486 84.289062 5.1757812 L 84.294922 0.0078125 L 80.390625 0 z "
       transform="matrix(0.26458333,0,0,0.26458333,45.969309,100.92077)"
       id="path845-3" />
    <path
       style="font-style:normal;font-weight:normal;font-size:10.58333302px;line-height:1.25;font-family:sans-serif;letter-spacing:0px;word-spacing:0px;fill:#e64017;fill-opacity:1;stroke:none;stroke-width:1.01291418"
       d="M 44.134766 0.0859375 L 29.642578 0.11132812 L 29.648438 3.4316406 L 36.984375 3.4179688 L 36.960938 7.3046875 L 30.261719 7.3183594 L 26.941406 7.3027344 L 26.896484 17.910156 L 30.214844 17.910156 L 30.246094 10.638672 L 40.259766 10.619141 L 40.287109 25.261719 L 44.181641 25.253906 L 44.154297 10.611328 L 44.148438 7.2910156 L 40.28125 7.2988281 L 40.304688 3.4121094 L 44.140625 3.40625 L 44.134766 0.0859375 z M 44.181641 25.253906 L 29.539062 25.300781 L 29.550781 29.195312 L 44.193359 29.148438 L 44.181641 25.253906 z "
       transform="matrix(0.26458333,0,0,0.26458333,45.969309,100.92077)"
       id="path869-2-7" />
  </g>
</svg>
