<?xml version="1.0" encoding="UTF-8" standalone="no"?>
<!-- Created with Inkscape (http://www.inkscape.org/) -->

<svg
   xmlns:dc="http://purl.org/dc/elements/1.1/"
   xmlns:cc="http://creativecommons.org/ns#"
   xmlns:rdf="http://www.w3.org/1999/02/22-rdf-syntax-ns#"
   xmlns:svg="http://www.w3.org/2000/svg"
   xmlns="http://www.w3.org/2000/svg"
   xmlns:sodipodi="http://sodipodi.sourceforge.net/DTD/sodipodi-0.dtd"
   xmlns:inkscape="http://www.inkscape.org/namespaces/inkscape"
   width="25.265505mm"
   height="7.8737202mm"
   viewBox="0 0 25.265505 7.8737201"
   version="1.1"
   id="svg8"
   inkscape:version="0.92.4 (5da689c313, 2019-01-14)"
   sodipodi:docname="ffblue-red.svg">
  <defs
     id="defs2" />
  <sodipodi:namedview
     id="base"
     pagecolor="#ffffff"
     bordercolor="#666666"
     borderopacity="1.0"
     inkscape:pageopacity="0.0"
     inkscape:pageshadow="2"
     inkscape:zoom="11.2"
     inkscape:cx="48.651893"
     inkscape:cy="11.240443"
     inkscape:document-units="mm"
     inkscape:current-layer="text12"
     showgrid="false"
     fit-margin-top="0"
     fit-margin-left="0"
     fit-margin-right="0"
     fit-margin-bottom="0"
     inkscape:window-width="1920"
     inkscape:window-height="1062"
     inkscape:window-x="1"
     inkscape:window-y="18"
     inkscape:window-maximized="0" />
  <metadata
     id="metadata5">
    <rdf:RDF>
      <cc:Work
         rdf:about="">
        <dc:format>image/svg+xml</dc:format>
        <dc:type
           rdf:resource="http://purl.org/dc/dcmitype/StillImage" />
        <dc:title></dc:title>
      </cc:Work>
    </rdf:RDF>
  </metadata>
  <g
     inkscape:label="Layer 1"
     inkscape:groupmode="layer"
     id="layer1"
     transform="translate(-46.431411,-101.05925)">
    <g
       aria-label="BLUE"
       style="font-style:normal;font-weight:normal;font-size:10.58333302px;line-height:1.25;font-family:sans-serif;letter-spacing:0px;word-spacing:0px;fill:#000000;fill-opacity:1;stroke:none;stroke-width:0.26458332"
       id="text12">
      <path
         style="fill:#e64017;fill-opacity:1;stroke-width:0.99999994"
         d="M 78.857422 0.11914062 L 78.855469 1.9160156 L 82.863281 1.921875 L 82.896484 12.605469 L 78.841797 12.599609 L 78.837891 15.841797 L 82.908203 15.849609 L 82.908203 16.048828 L 79.896484 16.095703 C 78.410026 16.405624 77.267878 17.054627 76.494141 18.066406 C 75.677642 19.134161 75.282306 20.560115 75.310547 22.34375 C 75.347964 24.648128 76.190633 26.412643 77.837891 27.636719 C 79.485107 28.860719 81.810955 29.448088 84.818359 29.400391 L 90.853516 29.304688 L 90.802734 26.0625 L 86.84375 26.125 L 86.814453 17.335938 L 90.664062 17.275391 L 90.642578 15.925781 L 86.810547 15.986328 L 86.810547 15.791016 C 89.335934 15.599088 91.346963 14.918408 92.828125 13.734375 C 94.600746 12.317317 95.488907 10.307295 95.492188 7.703125 C 95.494508 5.7240132 94.956031 4.0762507 93.876953 2.7597656 C 92.810922 1.4303168 91.308715 0.55583056 89.369141 0.13671875 L 78.857422 0.11914062 z M 86.765625 2.0449219 C 88.052236 2.2251238 89.069598 2.615308 89.792969 3.2382812 C 90.820535 4.0989175 91.334325 5.4407679 91.332031 7.2636719 C 91.329922 9.0735742 90.812966 10.420543 89.783203 11.304688 C 89.067556 11.917866 88.062277 12.302187 86.798828 12.482422 L 86.765625 2.0449219 z M 82.914062 17.578125 L 82.939453 25.984375 C 82.046765 25.821657 81.302505 25.5476 80.746094 25.128906 C 79.784087 24.414878 79.290924 23.322668 79.267578 21.851562 C 79.243011 20.36738 79.701764 19.251964 80.640625 18.507812 C 81.20499 18.062332 81.977913 17.763445 82.914062 17.578125 z "
         transform="matrix(0.26458333,0,0,0.26458333,46.431411,101.05925)"
         id="path867" />
      <path
         style="fill:#e64017;fill-opacity:1;stroke-width:0.99999994"
         d="M 2.7070312 3.9648438 L 2.671875 15.154297 L 0 15.162109 L 0.009765625 18.482422 L 5.1894531 18.466797 L 5.9824219 18.46875 L 5.9824219 18.462891 L 14.134766 18.4375 L 14.171875 29.759766 L 18.066406 29.748047 L 18.019531 15.105469 L 14.125 15.117188 L 5.9921875 15.142578 L 6.0273438 3.9765625 L 2.7070312 3.9648438 z "
         transform="matrix(0.26458333,0,0,0.26458333,46.431411,101.05925)"
         id="path869" />
      <path
         style="font-style:normal;font-weight:normal;font-size:10.58333302px;line-height:1.25;font-family:sans-serif;letter-spacing:0px;word-spacing:0px;fill:#e64017;fill-opacity:1;stroke:none;stroke-width:0.99999994"
         d="M 40.304688 0 L 25.8125 0.046875 L 25.824219 3.3671875 L 32.513672 3.3457031 L 32.535156 7.7675781 L 26.443359 7.7871094 L 22.548828 7.7988281 L 22.582031 18.017578 L 26.476562 18.017578 L 26.455078 11.107422 L 36.447266 11.074219 L 36.494141 25.716797 L 40.388672 25.705078 L 40.341797 11.0625 L 40.330078 7.7421875 L 36.429688 7.7539062 L 36.408203 3.3320312 L 40.316406 3.3203125 L 40.304688 0 z M 40.388672 25.705078 L 25.746094 25.771484 L 25.763672 29.666016 L 40.40625 29.599609 L 40.388672 25.705078 z "
         transform="matrix(0.26458333,0,0,0.26458333,46.431411,101.05925)"
         id="path869-3" />
      <path
         style="font-style:normal;font-weight:normal;font-size:10.58333302px;line-height:1.25;font-family:sans-serif;letter-spacing:0px;word-spacing:0px;fill:#e64017;fill-opacity:1;stroke:none;stroke-width:0.99999994"
         d="M 57.855469 0.20117188 L 53.857422 0.21289062 C 53.833611 0.62478354 53.818952 1.0460754 53.820312 1.4824219 L 53.853516 11.507812 L 57.658203 19.232422 C 57.569954 19.231567 57.487738 19.224322 57.398438 19.224609 C 53.726577 19.235948 50.956633 20.215993 49.087891 22.162109 C 47.422071 23.884931 46.501892 26.336488 46.320312 29.513672 L 50.318359 29.503906 C 50.492293 27.281355 51.02473 25.605524 51.927734 24.498047 C 53.056139 23.12725 54.884124 22.437813 57.410156 22.429688 C 59.949201 22.422128 61.786621 23.099388 62.923828 24.462891 C 63.833942 25.564547 64.376236 27.235652 64.564453 29.457031 L 68.5625 29.443359 L 68.349609 1.4824219 C 68.346287 1.0460754 68.330879 0.62463236 68.304688 0.21289062 L 64.306641 0.22460938 C 64.35362 0.77899047 64.384678 1.3563176 64.386719 1.9804688 L 64.449219 21.029297 C 62.749736 19.886734 60.547106 19.28993 57.84375 19.238281 L 57.787109 1.9589844 C 57.785102 1.3348332 57.812042 0.75581754 57.855469 0.20117188 z "
         transform="matrix(0.26458333,0,0,0.26458333,46.431411,101.05925)"
         id="path871-9" />
    </g>
  </g>
</svg>
