<?xml version="1.0" encoding="UTF-8" standalone="no"?>
<!-- Created with Inkscape (http://www.inkscape.org/) -->

<svg
   xmlns:dc="http://purl.org/dc/elements/1.1/"
   xmlns:cc="http://creativecommons.org/ns#"
   xmlns:rdf="http://www.w3.org/1999/02/22-rdf-syntax-ns#"
   xmlns:svg="http://www.w3.org/2000/svg"
   xmlns="http://www.w3.org/2000/svg"
   xmlns:sodipodi="http://sodipodi.sourceforge.net/DTD/sodipodi-0.dtd"
   xmlns:inkscape="http://www.inkscape.org/namespaces/inkscape"
   width="210mm"
   height="297mm"
   viewBox="0 0 210 297"
   version="1.1"
   id="svg823"
   inkscape:version="0.92.4 (5da689c313, 2019-01-14)"
   sodipodi:docname="ffletters.svg">
  <defs
     id="defs817" />
  <sodipodi:namedview
     id="base"
     pagecolor="#ffffff"
     bordercolor="#666666"
     borderopacity="1.0"
     inkscape:pageopacity="0.0"
     inkscape:pageshadow="2"
     inkscape:zoom="3.959798"
     inkscape:cx="298.83194"
     inkscape:cy="809.75808"
     inkscape:document-units="mm"
     inkscape:current-layer="layer1"
     showgrid="false"
     inkscape:window-width="1920"
     inkscape:window-height="1062"
     inkscape:window-x="1"
     inkscape:window-y="18"
     inkscape:window-maximized="0" />
  <metadata
     id="metadata820">
    <rdf:RDF>
      <cc:Work
         rdf:about="">
        <dc:format>image/svg+xml</dc:format>
        <dc:type
           rdf:resource="http://purl.org/dc/dcmitype/StillImage" />
        <dc:title />
      </cc:Work>
    </rdf:RDF>
  </metadata>
  <g
     inkscape:label="Layer 1"
     inkscape:groupmode="layer"
     id="layer1">
    <path
       inkscape:connector-curvature="0"
       style="font-style:normal;font-weight:normal;font-size:10.58333302px;line-height:1.25;font-family:sans-serif;letter-spacing:0px;word-spacing:0px;fill:#174be6;fill-opacity:1;stroke:none;stroke-width:0.26458332"
       d="m 70.446427,69.710622 -5.3e-4,0.47543 1.0604,0.002 0.009,2.8267 -1.0728,-0.002 -0.001,0.85783 1.07693,0.002 v 0.0527 l -0.79685,0.0124 c -0.39329,0.082 -0.69548,0.25371 -0.9002,0.52141 -0.21603,0.28251 -0.32063,0.6598 -0.31316,1.13172 0.01,0.6097 0.23286,1.07656 0.66869,1.40043 0.43583,0.32385 1.05121,0.47926 1.84692,0.46664 l 1.5968,-0.0253 -0.0134,-0.85782 -1.04748,0.0165 -0.008,-2.32544 1.01854,-0.016 -0.006,-0.35708 -1.01389,0.016 v -0.0517 c 0.6682,-0.0508 1.20028,-0.23088 1.59217,-0.54416 0.46901,-0.37493 0.704,-0.90675 0.70487,-1.59577 6.3e-4,-0.52362 -0.14185,-0.95959 -0.42735,-1.30791 -0.28206,-0.35175 -0.67952,-0.58313 -1.1927,-0.69402 z m 2.09238,0.50953 c 0.34041,0.0477 0.60959,0.15092 0.80098,0.31575 0.27188,0.22771 0.40782,0.58274 0.40721,1.06505 -5.5e-4,0.47887 -0.13733,0.83525 -0.40979,1.06918 -0.18935,0.16224 -0.45533,0.26392 -0.78962,0.31161 z m -1.01906,4.10983 0.007,2.22415 c -0.23618,-0.043 -0.43309,-0.11556 -0.58031,-0.22634 -0.25453,-0.18892 -0.38501,-0.4779 -0.39119,-0.86713 -0.007,-0.39269 0.11488,-0.68781 0.36328,-0.8847 0.14933,-0.11787 0.35383,-0.19695 0.60152,-0.24598 z"
       id="path867" />
    <path
       inkscape:connector-curvature="0"
       style="font-style:normal;font-weight:normal;font-size:10.58333302px;line-height:1.25;font-family:sans-serif;letter-spacing:0px;word-spacing:0px;fill:#174be6;fill-opacity:1;stroke:none;stroke-width:0.26458332"
       d="m 49.76913,70.728132 -0.009,2.96054 -0.70693,0.002 0.003,0.8785 1.37046,-0.004 0.20981,5.2e-4 v -0.002 l 2.15697,-0.007 0.01,2.99569 1.03043,-0.003 -0.0124,-3.87418 -1.03043,0.003 -2.15181,0.007 0.009,-2.95435 z"
       id="path869" />
    <path
       inkscape:connector-curvature="0"
       style="font-style:normal;font-weight:normal;font-size:10.58333302px;line-height:1.25;font-family:sans-serif;letter-spacing:0px;word-spacing:0px;fill:#174be6;fill-opacity:1;stroke:none;stroke-width:0.26458332"
       d="m 60.246017,69.679102 -3.83439,0.0124 0.003,0.8785 1.76991,-0.006 0.006,1.16995 -1.61178,0.005 -1.03043,0.003 0.009,2.70371 h 1.03043 l -0.006,-1.82831 2.64376,-0.009 0.0124,3.87418 1.03043,-0.003 -0.0124,-3.87418 -0.003,-0.8785 -1.03198,0.003 -0.006,-1.16995 1.03405,-0.003 z m 0.0222,6.80114 -3.87418,0.0176 0.005,1.03042 3.87418,-0.0176 z"
       id="path869-3" />
    <path
       inkscape:connector-curvature="0"
       style="font-style:normal;font-weight:normal;font-size:10.58333302px;line-height:1.25;font-family:sans-serif;letter-spacing:0px;word-spacing:0px;fill:#174be6;fill-opacity:1;stroke:none;stroke-width:0.26458332"
       d="m 64.889657,69.732332 -1.05782,0.003 c -0.006,0.10898 -0.0102,0.22044 -0.01,0.33589 l 0.009,2.65256 1.00666,2.0438 c -0.0233,-2.3e-4 -0.0451,-0.002 -0.0687,-0.002 -0.97151,0.003 -1.70439,0.2623 -2.19883,0.77721 -0.44075,0.45583 -0.68421,1.10447 -0.73226,1.9451 l 1.05782,-0.003 c 0.046,-0.58805 0.18689,-1.03144 0.42581,-1.32446 0.29856,-0.36269 0.78221,-0.54511 1.45056,-0.54726 0.67179,-0.002 1.15794,0.17719 1.45883,0.53795 0.2408,0.29148 0.38428,0.73363 0.43408,1.32137 l 1.05782,-0.004 -0.0563,-7.398 c -8.8e-4,-0.11545 -0.005,-0.22695 -0.0119,-0.33589 l -1.05782,0.003 c 0.0124,0.14668 0.0206,0.29943 0.0212,0.46457 l 0.0165,5.03999 c -0.44966,-0.3023 -1.03244,-0.46021 -1.7477,-0.47387 l -0.015,-4.57182 c -5.3e-4,-0.16514 0.007,-0.31833 0.0181,-0.46508 z"
       id="path871-9" />
    <text
       xml:space="preserve"
       style="font-style:normal;font-weight:normal;font-size:10.58333302px;line-height:1.25;font-family:sans-serif;letter-spacing:0px;word-spacing:0px;fill:#000000;fill-opacity:1;stroke:none;stroke-width:0.26458332"
       x="48.108513"
       y="86.324791"
       id="text1394"><tspan
         sodipodi:role="line"
         id="tspan1392"
         x="48.108513"
         y="86.324791"
         style="stroke-width:0.26458332">LEUBRDGN</tspan></text>
    <path
       inkscape:connector-curvature="0"
       style="font-style:normal;font-weight:normal;font-size:10.58333302px;line-height:1.25;font-family:sans-serif;letter-spacing:0px;word-spacing:0px;fill:#e64017;fill-opacity:1;stroke:none;stroke-width:0.26807812"
       d="m 83.991151,69.719226 -0.0022,7.817356 1.034666,7.09e-4 0.0022,-7.779972 c 0.0034,1.329194 0.356872,2.307047 1.061423,2.932104 0.708421,0.632009 1.81998,0.948141 3.334901,0.948535 l 1.087812,3.77e-4 v -0.869346 l -1.24981,-3.75e-4 c -1.078596,1.82e-4 -1.86755,-0.244936 -2.366574,-0.733759 -0.502518,-0.485327 -0.753465,-1.251588 -0.753185,-2.29877 2e-6,-0.0051 3.57e-4,-0.01056 3.76e-4,-0.01613 h -1.114942 z m 1.032467,7.818089 c 0,0 0,3.75e-4 0,3.75e-4 l 1.115299,-3.75e-4 c 0.0029,-1.04557 0.253809,-1.811715 0.753918,-2.297671 0.499286,-0.488547 1.288346,-0.732576 2.36694,-0.732293 l 1.24981,3.76e-4 v -0.869002 h -1.087444 c -1.507941,-3.63e-4 -2.617886,0.31508 -3.330137,0.946694 -0.709227,0.628921 -1.065016,1.613266 -1.068386,2.951896 z"
       id="path849-6" />
    <path
       inkscape:connector-curvature="0"
       style="font-style:normal;font-weight:normal;font-size:10.58333302px;line-height:1.25;font-family:sans-serif;letter-spacing:0px;word-spacing:0px;fill:#e64017;fill-opacity:1;stroke:none;stroke-width:0.26674232"
       d="m 77.187159,69.654251 -0.0011,4.151229 1.037899,7.06e-4 3.73e-4,-1.642184 c 0.0895,0.457168 0.288086,0.820019 0.599909,1.084944 0.437536,0.371749 1.10059,0.55776 1.989731,0.557971 h 0.247988 l -7.76e-4,3.286922 -1.146211,-3.74e-4 c -0.416725,-4.45e-4 -0.74462,-0.08493 -0.984232,-0.255259 -0.243083,-0.170248 -0.493269,-0.516122 -0.75016,-1.037169 L 77.186087,73.80547 h -1.130529 l 1.067438,2.126124 c 0.215234,0.437673 0.430581,0.781574 0.645861,1.031699 0.197541,0.233279 0.401188,0.387846 0.610849,0.470081 l 3.734029,7.06e-4 7.76e-4,-3.627175 3.74e-4,-0.864672 -1.300473,-7.05e-4 c -0.50709,2.26e-4 -0.88925,-0.116585 -1.146213,-0.34935 -0.260435,-0.229295 -0.390323,-0.571235 -0.390214,-1.026228 1.09e-4,-0.454982 0.130397,-0.800683 0.390943,-1.036804 0.257073,-0.232633 0.639121,-0.348762 1.146211,-0.348641 l 1.300108,3.64e-4 3.74e-4,-0.495244 -2.640333,-3.65e-4 c -0.420083,0.126454 -0.742317,0.34611 -0.963156,0.661917 -0.137364,0.193461 -0.232617,0.417355 -0.287738,0.670659 l 3.73e-4,-1.362834 z"
       id="path845-3" />
    <path
       inkscape:connector-curvature="0"
       style="font-style:normal;font-weight:normal;font-size:10.58333302px;line-height:1.25;font-family:sans-serif;letter-spacing:0px;word-spacing:0px;fill:#8ce617;fill-opacity:1;stroke:none;stroke-width:0.27933902"
       d="m 99.431271,69.5646 c -0.493355,0.0133 -0.960938,0.0827 -1.400432,0.214457 -0.485484,0.14904 -0.929155,0.367027 -1.3317,0.653707 l 0.0057,3.204456 -0.0067,-1.00304 c -0.383886,-0.23879 -0.80333,-0.418799 -1.25884,-0.540019 -0.452064,-0.12124 -0.930013,-0.179833 -1.432988,-0.176733 -0.520137,0.003 -0.987846,0.07577 -1.409732,0.209806 l 0.0016,0.969967 c 0.08925,-0.0463 0.184991,-0.08561 0.283186,-0.121956 3.4e-5,0.02816 -5.29e-4,0.05567 5.29e-4,0.08475 0.05404,1.400349 0.435192,2.47806 1.143601,3.23236 0.7117,0.75029 1.669573,1.096443 2.874242,1.039213 0.0276,-0.0013 0.05465,-0.0037 0.08165,-0.0062 v 0.01292 c 0.01535,-0.0046 0.02922,-0.0112 0.04444,-0.01602 0.0013,-6.7e-5 0.0024,-4.49e-4 0.0036,-5.29e-4 v -10e-4 c 0.537173,-0.170633 0.999593,-0.443481 1.37873,-0.83044 0.648743,-0.66224 0.989648,-1.581111 1.030947,-2.75022 l -0.0016,-0.857829 -1.700673,0.0031 -0.0036,-2.072224 c 0.230571,-0.134769 0.49053,-0.235283 0.779796,-0.301273 0.270851,-0.0585 0.579937,-0.08717 0.920356,-0.09147 z m -5.331973,3.209623 c 0.478859,-0.003 0.936397,0.07716 1.371491,0.239779 0.434883,0.162611 0.846339,0.406051 1.234033,0.730705 8.2e-5,6.8e-5 -8.2e-5,4.49e-4 0,5.29e-4 h 5.29e-4 l 1.634008,-0.0031 c -0.03548,0.944188 -0.273039,1.664278 -0.717785,2.153873 -0.177689,0.194189 -0.38731,0.351062 -0.628904,0.472322 -0.01458,7.94e-4 -0.02713,0.0031 -0.04186,0.0041 -0.943084,0.0447 -1.66347,-0.214841 -2.161109,-0.779281 -0.494194,-0.56461 -0.763505,-1.426205 -0.808217,-2.584855 -0.0028,-0.0732 -0.0019,-0.142364 -0.0027,-0.213424 l -0.427359,0.02015 c 0.173839,-0.02334 0.353975,-0.03963 0.547769,-0.04082 z m -0.05013,4.53099 c 0.03008,0.01 0.05928,0.02044 0.08992,0.02894 0.08635,0.0243 0.174231,0.04428 0.262517,0.06408 -0.08848,-0.0198 -0.176512,-0.04019 -0.263036,-0.0646 -0.03046,-0.009 -0.05953,-0.01902 -0.0894,-0.02842 z m 2.585889,0.121956 c -0.09749,0.0207 -0.197218,0.03821 -0.299207,0.05271 0.102423,-0.0141 0.201364,-0.03241 0.299207,-0.05271 z m -0.442867,0.06873 c -0.07227,0.008 -0.14459,0.0167 -0.219107,0.0217 0.07471,-0.005 0.146603,-0.0139 0.219107,-0.0217 z m -0.995805,0.02015 c 0.122457,0.009 0.246846,0.01357 0.372589,0.01447 v -5.29e-4 c -0.125743,-7.67e-4 -0.250108,-0.0059 -0.372589,-0.01395 z"
       id="path42-6" />
    <path
       inkscape:connector-curvature="0"
       style="font-style:normal;font-weight:normal;font-size:10.58333302px;line-height:1.25;font-family:sans-serif;letter-spacing:0px;word-spacing:0px;fill:#8ce617;fill-opacity:1;stroke:none;stroke-width:0.26458332"
       d="m 104.63814,69.834 -0.37465,10e-4 -1.00614,0.0016 0.0114,6.423897 -1.35599,-2.547131 0.48938,-10e-4 -0.007,-3.874184 -1.03043,0.0021 0.005,2.853056 v 5.29e-4 l 0.002,1.020609 0.001,0.980302 1.52135,2.858224 0.37672,-0.001 v 5.29e-4 l 1.00614,-0.0021 -0.0114,-6.419763 1.35909,2.552816 -0.49247,10e-4 0.007,3.874182 1.03043,-0.0021 -0.007,-3.874182 h -0.003 l -0.002,-0.992188 z"
       id="path50-7" />
  </g>
</svg>
